# metres; Z up; applied/baked transforms
mtllib tall_wild_grass.mtl
o tall_wild_grass
g blade_00
usemtl foliage
s 1
v -0.00686162 -0.01740738 0.00000000
v -0.00686162 0.02059196 0.00000000
v -0.00321230 0.00159229 0.00000000
v 0.12095168 -0.00942752 0.40011119
v 0.12095168 0.01261209 0.40011119
v 0.35000000 0.00159229 0.68984688
vn -0.15251257 -0.98806751 0.02150608
vn 0.00000000 0.99962094 -0.02753142
vn 0.88819438 0.00000000 -0.45946789
vn -0.23087164 -0.96197917 0.14592588
vn -0.45007360 0.86821018 0.20891345
vn 0.95416111 0.00000000 -0.29929346
vt 0.10000000 0.00000000
vt 0.10000000 1.00000000
vt 0.03000000 0.00000000
f 3/1/3 6/2/6 1/3/1
vt 0.03000000 0.00000000
vt 0.17000000 0.00000000
vt 0.10000000 0.00000000
f 1/4/1 2/5/2 3/6/3
vt 0.10000000 0.00000000
vt 0.17000000 0.00000000
vt 0.10000000 1.00000000
f 3/7/3 2/8/2 6/9/6
vt 0.03000000 0.00000000
vt 0.10000000 1.00000000
vt 0.03000000 0.58000000
f 1/10/1 6/11/6 4/12/4
vt 0.10000000 1.00000000
vt 0.17000000 0.00000000
vt 0.17000000 0.58000000
f 6/13/6 2/14/2 5/15/5
vt 0.17000000 0.58000000
vt 0.03000000 0.58000000
vt 0.10000000 1.00000000
f 5/16/5 4/17/4 6/18/6
vt 0.03000000 0.00000000
vt 0.03000000 0.58000000
vt 0.17000000 0.58000000
f 1/19/1 4/20/4 5/21/5
vt 0.17000000 0.58000000
vt 0.17000000 0.00000000
vt 0.03000000 0.00000000
f 5/22/5 2/23/2 1/24/1
g blade_01
usemtl foliage
s 1
v 0.00671876 0.01339265 0.00000000
v -0.01427217 -0.01285280 0.00000000
v -0.00629722 0.00291465 0.00000000
v -0.09856379 0.11372657 0.32221456
v -0.11073853 0.09850421 0.32221456
v -0.28524379 0.29560746 0.55554234
vn 0.79906702 0.60078174 0.02352022
vn -0.72357640 -0.68959382 -0.02995923
vn -0.63144696 0.50502684 -0.58840685
vn 0.82418977 0.54420426 0.15669380
vn -0.38744783 -0.88804589 0.24750490
vn -0.71413939 0.57116366 -0.40469371
vt 0.23000000 0.58000000
vt 0.23000000 0.00000000
vt 0.30000000 1.00000000
f 10/25/10 7/26/7 12/27/12
vt 0.30000000 1.00000000
vt 0.37000000 0.00000000
vt 0.37000000 0.58000000
f 12/28/12 8/29/8 11/30/11
vt 0.37000000 0.58000000
vt 0.23000000 0.58000000
vt 0.30000000 1.00000000
f 11/31/11 10/32/10 12/33/12
vt 0.23000000 0.00000000
vt 0.37000000 0.00000000
vt 0.30000000 0.00000000
f 7/34/7 8/35/8 9/36/9
vt 0.30000000 1.00000000
vt 0.23000000 0.00000000
vt 0.30000000 0.00000000
f 12/37/12 7/38/7 9/39/9
vt 0.30000000 0.00000000
vt 0.37000000 0.00000000
vt 0.30000000 1.00000000
f 9/40/9 8/41/8 12/42/12
vt 0.23000000 0.00000000
vt 0.23000000 0.58000000
vt 0.37000000 0.58000000
f 7/43/7 10/44/10 11/45/11
vt 0.37000000 0.58000000
vt 0.37000000 0.00000000
vt 0.23000000 0.00000000
f 11/46/11 8/47/8 7/48/7
g blade_02
usemtl foliage
s 1
v -0.01549831 0.00185621 0.00000000
v 0.00522433 0.00393929 0.00000000
v -0.00493694 0.00028683 0.00000000
v -0.00166222 -0.12148848 0.34190089
v 0.01035690 -0.12028029 0.34190089
v 0.02130839 -0.34224698 0.58948430
vn -0.99983093 0.01150236 0.01434601
vn 0.99692201 0.07638530 -0.01765778
vn 0.08625357 -0.85805482 -0.50626303
vn -0.99371823 0.05783594 0.09580751
vn 0.92429266 0.35193733 0.14772674
vn 0.09416110 -0.93671926 -0.33718055
vt 0.83000000 0.00000000
vt 0.90000000 1.00000000
vt 0.83000000 0.58000000
f 13/49/13 18/50/18 16/51/16
vt 0.90000000 1.00000000
vt 0.97000000 0.00000000
vt 0.97000000 0.58000000
f 18/52/18 14/53/14 17/54/17
vt 0.97000000 0.58000000
vt 0.83000000 0.58000000
vt 0.90000000 1.00000000
f 17/55/17 16/56/16 18/57/18
vt 0.83000000 0.00000000
vt 0.97000000 0.00000000
vt 0.90000000 0.00000000
f 13/58/13 14/59/14 15/60/15
vt 0.90000000 0.00000000
vt 0.90000000 1.00000000
vt 0.83000000 0.00000000
f 15/61/15 18/62/18 13/63/13
vt 0.90000000 0.00000000
vt 0.97000000 0.00000000
vt 0.90000000 1.00000000
f 15/64/15 14/65/14 18/66/18
vt 0.83000000 0.00000000
vt 0.83000000 0.58000000
vt 0.97000000 0.58000000
f 13/67/13 16/68/16 17/69/17
vt 0.97000000 0.58000000
vt 0.97000000 0.00000000
vt 0.83000000 0.00000000
f 17/70/17 14/71/14 13/72/13
g blade_03
usemtl foliage
s 1
v 0.00254237 -0.00671947 0.00000000
v -0.01401244 0.00781824 0.00000000
v -0.00433889 0.00263519 0.00000000
v 0.04786063 0.06923138 0.49300000
v 0.03825884 0.07766325 0.49300000
v 0.13050408 0.20408653 0.85000000
vn 0.75135978 -0.65981335 0.01023867
vn -0.83094819 0.55620142 -0.01284828
vn 0.63446271 0.72249443 -0.27469776
vn 0.69960593 -0.71099164 0.07101003
vn -0.97534401 0.19785518 0.09776192
vn 0.65016452 0.74037486 -0.17067855
vt 0.57000000 0.00000000
vt 0.50000000 1.00000000
vt 0.50000000 0.00000000
f 20/73/20 24/74/24 21/75/21
vt 0.50000000 0.00000000
vt 0.43000000 0.00000000
vt 0.57000000 0.00000000
f 21/76/21 19/77/19 20/78/20
vt 0.50000000 1.00000000
vt 0.43000000 0.00000000
vt 0.50000000 0.00000000
f 24/79/24 19/80/19 21/81/21
vt 0.43000000 0.58000000
vt 0.43000000 0.00000000
vt 0.50000000 1.00000000
f 22/82/22 19/83/19 24/84/24
vt 0.57000000 0.58000000
vt 0.50000000 1.00000000
vt 0.57000000 0.00000000
f 23/85/23 24/86/24 20/87/20
vt 0.57000000 0.58000000
vt 0.43000000 0.58000000
vt 0.50000000 1.00000000
f 23/88/23 22/89/22 24/90/24
vt 0.43000000 0.00000000
vt 0.43000000 0.58000000
vt 0.57000000 0.58000000
f 19/91/19 22/92/22 23/93/23
vt 0.57000000 0.00000000
vt 0.43000000 0.00000000
vt 0.57000000 0.58000000
f 20/94/20 19/95/19 23/96/23
g blade_04
usemtl foliage
s 1
v -0.00617814 0.02151489 0.00000000
v -0.00014223 -0.01756982 0.00000000
v -0.00691374 0.00121204 0.00000000
v -0.10256071 -0.00647729 0.41505709
v -0.09905988 -0.02914643 0.41505709
v -0.27628726 -0.05336436 0.71561567
vn -0.19849478 0.97971349 -0.02759157
vn 0.38684180 -0.92192352 0.02025916
vn -0.92105194 -0.14223965 -0.36253443
vn 0.39803412 0.89566069 0.19839547
vn 0.47816776 -0.86685057 0.14115837
vn -0.96229986 -0.14860963 -0.22780288
vt 0.70000000 0.00000000
vt 0.77000000 0.00000000
vt 0.70000000 1.00000000
f 27/97/27 26/98/26 30/99/30
vt 0.70000000 1.00000000
vt 0.63000000 0.00000000
vt 0.70000000 0.00000000
f 30/100/30 25/101/25 27/102/27
vt 0.70000000 0.00000000
vt 0.63000000 0.00000000
vt 0.77000000 0.00000000
f 27/103/27 25/104/25 26/105/26
vt 0.70000000 1.00000000
vt 0.77000000 0.00000000
vt 0.77000000 0.58000000
f 30/106/30 26/107/26 29/108/29
vt 0.63000000 0.58000000
vt 0.63000000 0.00000000
vt 0.70000000 1.00000000
f 28/109/28 25/110/25 30/111/30
vt 0.70000000 1.00000000
vt 0.77000000 0.58000000
vt 0.63000000 0.58000000
f 30/112/30 29/113/29 28/114/28
vt 0.63000000 0.58000000
vt 0.77000000 0.58000000
vt 0.77000000 0.00000000
f 28/115/28 29/116/29 26/117/26
vt 0.77000000 0.00000000
vt 0.63000000 0.00000000
vt 0.63000000 0.58000000
f 26/118/26 25/119/25 28/120/28
g blade_05
usemtl foliage
s 1
v -0.01334892 -0.01027490 0.00000000
v 0.00082413 0.01524519 0.00000000
v -0.00381153 0.00069943 0.00000000
v 0.04325802 -0.04399141 0.42453246
v 0.05147839 -0.02918976 0.42453246
v 0.14393692 -0.10695142 0.73195251
vn -0.74453490 -0.66744135 0.01377821
vn 0.58876254 0.80806382 -0.01978709
vn 0.84772697 -0.47080065 -0.24434757
vn -0.81127015 -0.57636517 0.09820354
vn -0.06403919 0.98747609 0.14418724
vn 0.86447304 -0.48010089 -0.14896138
vt 0.10000000 0.00000000
vt 0.10000000 1.00000000
vt 0.03000000 0.00000000
f 33/121/33 36/122/36 31/123/31
vt 0.03000000 0.00000000
vt 0.17000000 0.00000000
vt 0.10000000 0.00000000
f 31/124/31 32/125/32 33/126/33
vt 0.10000000 0.00000000
vt 0.17000000 0.00000000
vt 0.10000000 1.00000000
f 33/127/33 32/128/32 36/129/36
vt 0.03000000 0.00000000
vt 0.10000000 1.00000000
vt 0.03000000 0.58000000
f 31/130/31 36/131/36 34/132/34
vt 0.10000000 1.00000000
vt 0.17000000 0.00000000
vt 0.17000000 0.58000000
f 36/133/36 32/134/32 35/135/35
vt 0.17000000 0.58000000
vt 0.03000000 0.58000000
vt 0.10000000 1.00000000
f 35/136/35 34/137/34 36/138/36
vt 0.03000000 0.00000000
vt 0.03000000 0.58000000
vt 0.17000000 0.58000000
f 31/139/31 34/140/34 35/141/35
vt 0.17000000 0.58000000
vt 0.17000000 0.00000000
vt 0.03000000 0.00000000
f 35/142/35 32/143/32 31/144/31
g blade_06
usemtl foliage
s 1
v 0.01360036 0.00488529 0.00000000
v -0.02260372 -0.00626221 0.00000000
v -0.00557225 0.00387303 0.00000000
v -0.02281377 0.12530415 0.43433043
v -0.04381214 0.11883860 0.43433043
v -0.08506828 0.34259183 0.74884557
vn 0.97323696 0.22841507 -0.02522644
vn -0.92703611 -0.37448262 0.01915268
vn -0.26634739 0.86502536 -0.42519429
vn 0.95542036 -0.22899145 0.18637287
vn -0.88296185 -0.44940242 0.13570492
vn -0.28316517 0.91964503 -0.27215897
vt 0.30000000 1.00000000
vt 0.23000000 0.00000000
vt 0.30000000 0.00000000
f 42/145/42 37/146/37 39/147/39
vt 0.30000000 0.00000000
vt 0.37000000 0.00000000
vt 0.30000000 1.00000000
f 39/148/39 38/149/38 42/150/42
vt 0.23000000 0.00000000
vt 0.37000000 0.00000000
vt 0.30000000 0.00000000
f 37/151/37 38/152/38 39/153/39
vt 0.30000000 1.00000000
vt 0.37000000 0.00000000
vt 0.37000000 0.58000000
f 42/154/42 38/155/38 41/156/41
vt 0.23000000 0.58000000
vt 0.23000000 0.00000000
vt 0.30000000 1.00000000
f 40/157/40 37/158/37 42/159/42
vt 0.30000000 1.00000000
vt 0.37000000 0.58000000
vt 0.23000000 0.58000000
f 42/160/42 41/161/41 40/162/40
vt 0.23000000 0.58000000
vt 0.37000000 0.58000000
vt 0.37000000 0.00000000
f 40/163/40 41/164/41 38/165/38
vt 0.23000000 0.58000000
vt 0.37000000 0.00000000
vt 0.23000000 0.00000000
f 40/166/40 38/167/38 37/168/37
g blade_07
usemtl foliage
s 1
v -0.01900721 0.01227323 0.00000000
v 0.01062624 -0.00535502 0.00000000
v -0.00588344 -0.00027453 0.00000000
v -0.07017671 -0.11800193 0.38079349
v -0.05298931 -0.12822631 0.38079349
v -0.16446064 -0.35000000 0.65654051
vn -0.84992525 0.52649824 0.02065598
vn 0.91043764 -0.41282281 -0.02608883
vn -0.44081094 -0.74101234 -0.50654360
vn -0.80185103 0.58027270 0.14254304
vn 0.97968966 -0.03578211 0.19730134
vn -0.48165116 -0.80966559 -0.33534131
vt 0.90000000 0.00000000
vt 0.97000000 0.00000000
vt 0.90000000 1.00000000
f 45/169/45 44/170/44 48/171/48
vt 0.90000000 1.00000000
vt 0.83000000 0.00000000
vt 0.90000000 0.00000000
f 48/172/48 43/173/43 45/174/45
vt 0.90000000 0.00000000
vt 0.83000000 0.00000000
vt 0.97000000 0.00000000
f 45/175/45 43/176/43 44/177/44
vt 0.83000000 0.58000000
vt 0.83000000 0.00000000
vt 0.90000000 1.00000000
f 46/178/46 43/179/43 48/180/48
vt 0.90000000 1.00000000
vt 0.97000000 0.00000000
vt 0.97000000 0.58000000
f 48/181/48 44/182/44 47/183/47
vt 0.97000000 0.58000000
vt 0.83000000 0.58000000
vt 0.90000000 1.00000000
f 47/184/47 46/185/46 48/186/48
vt 0.83000000 0.00000000
vt 0.83000000 0.58000000
vt 0.97000000 0.58000000
f 43/187/43 46/188/46 47/189/47
vt 0.97000000 0.00000000
vt 0.83000000 0.00000000
vt 0.97000000 0.58000000
f 44/190/44 43/191/43 47/192/47
g blade_08
usemtl foliage
s 1
v -0.00154768 -0.01469766 0.00000000
v -0.01153426 0.01662399 0.00000000
v -0.00353295 0.00222141 0.00000000
v 0.09268434 0.03217418 0.47755603
v 0.08689213 0.05034074 0.47755603
v 0.26254416 0.11352089 0.82337247
vn 0.23118737 -0.97278511 0.01554158
vn -0.38582092 0.92235940 -0.01988338
vn 0.89844285 0.28645908 -0.33277868
vn 0.14180036 -0.98401324 0.10775249
vn -0.76043962 0.63293510 0.14534356
vn 0.93174428 0.29707689 -0.20880115
vt 0.37000000 0.00000000
vt 0.30000000 1.00000000
vt 0.30000000 0.00000000
f 50/193/50 54/194/54 51/195/51
vt 0.30000000 0.00000000
vt 0.23000000 0.00000000
vt 0.37000000 0.00000000
f 51/196/51 49/197/49 50/198/50
vt 0.30000000 1.00000000
vt 0.23000000 0.00000000
vt 0.30000000 0.00000000
f 54/199/54 49/200/49 51/201/51
vt 0.23000000 0.58000000
vt 0.23000000 0.00000000
vt 0.30000000 1.00000000
f 52/202/52 49/203/49 54/204/54
vt 0.37000000 0.58000000
vt 0.30000000 1.00000000
vt 0.37000000 0.00000000
f 53/205/53 54/206/54 50/207/50
vt 0.37000000 0.58000000
vt 0.23000000 0.58000000
vt 0.30000000 1.00000000
f 53/208/53 52/209/52 54/210/54
vt 0.23000000 0.00000000
vt 0.23000000 0.58000000
vt 0.37000000 0.58000000
f 49/211/49 52/212/52 53/213/53
vt 0.37000000 0.00000000
vt 0.23000000 0.00000000
vt 0.37000000 0.58000000
f 50/214/50 49/215/49 53/216/53
g blade_09
usemtl foliage
s 1
v 0.00124391 0.01472854 0.00000000
v -0.00867470 -0.01279365 0.00000000
v -0.00635853 0.00221713 0.00000000
v -0.07676524 0.04484711 0.27873247
v -0.08251803 0.02888424 0.27873247
v -0.21594317 0.10130958 0.48057322
vn 0.57658741 0.81672456 0.02253782
vn -0.42724024 -0.90363081 -0.03028417
vn -0.84605414 0.30490589 -0.43729257
vn 0.64176738 0.75113198 0.15471064
vn 0.12381643 -0.96531315 0.22986954
vn -0.90273818 0.32533402 -0.28146324
vt 0.50000000 1.00000000
vt 0.43000000 0.00000000
vt 0.50000000 0.00000000
f 60/217/60 55/218/55 57/219/57
vt 0.50000000 0.00000000
vt 0.57000000 0.00000000
vt 0.50000000 1.00000000
f 57/220/57 56/221/56 60/222/60
vt 0.43000000 0.00000000
vt 0.57000000 0.00000000
vt 0.50000000 0.00000000
f 55/223/55 56/224/56 57/225/57
vt 0.43000000 0.58000000
vt 0.43000000 0.00000000
vt 0.50000000 1.00000000
f 58/226/58 55/227/55 60/228/60
vt 0.50000000 1.00000000
vt 0.57000000 0.00000000
vt 0.57000000 0.58000000
f 60/229/60 56/230/56 59/231/59
vt 0.57000000 0.58000000
vt 0.43000000 0.58000000
vt 0.50000000 1.00000000
f 59/232/59 58/233/58 60/234/60
vt 0.43000000 0.00000000
vt 0.43000000 0.58000000
vt 0.57000000 0.58000000
f 55/235/55 58/236/58 59/237/59
vt 0.57000000 0.58000000
vt 0.57000000 0.00000000
vt 0.43000000 0.00000000
f 59/238/59 56/239/56 55/240/55
g blade_10
usemtl foliage
s 1
v -0.02199273 -0.00501933 0.00000000
v 0.01025865 0.01226738 0.00000000
v -0.00420689 -0.00043945 0.00000000
v 0.02722746 -0.10528552 0.30261974
v 0.04593325 -0.09525923 0.30261974
v 0.11287247 -0.28700881 0.52175817
vn -0.97399263 -0.22514132 0.02548994
vn 0.92515822 0.37797804 -0.03485486
vn 0.40536897 -0.75628674 -0.51352348
vn -0.97448189 -0.13685112 0.17792364
vn 0.57872877 0.77061077 0.26689332
vn 0.44452886 -0.82934638 -0.33849472
vt 0.10000000 0.00000000
vt 0.10000000 1.00000000
vt 0.03000000 0.00000000
f 63/241/63 66/242/66 61/243/61
vt 0.03000000 0.00000000
vt 0.17000000 0.00000000
vt 0.10000000 0.00000000
f 61/244/61 62/245/62 63/246/63
vt 0.10000000 0.00000000
vt 0.17000000 0.00000000
vt 0.10000000 1.00000000
f 63/247/63 62/248/62 66/249/66
vt 0.03000000 0.00000000
vt 0.10000000 1.00000000
vt 0.03000000 0.58000000
f 61/250/61 66/251/66 64/252/64
vt 0.10000000 1.00000000
vt 0.17000000 0.00000000
vt 0.17000000 0.58000000
f 66/253/66 62/254/62 65/255/65
vt 0.17000000 0.58000000
vt 0.03000000 0.58000000
vt 0.10000000 1.00000000
f 65/256/65 64/257/64 66/258/66
vt 0.03000000 0.00000000
vt 0.03000000 0.58000000
vt 0.17000000 0.58000000
f 61/259/61 64/260/64 65/261/65
vt 0.17000000 0.58000000
vt 0.17000000 0.00000000
vt 0.03000000 0.00000000
f 65/262/65 62/263/62 61/264/61
g blade_11
usemtl foliage
s 1
v 0.00772620 -0.00482250 0.00000000
v -0.01871233 0.00467598 0.00000000
v -0.00458086 0.00325783 0.00000000
v 0.02669650 0.08672088 0.30811873
v 0.01136215 0.09223000 0.30811873
v 0.06308078 0.25033867 0.53123920
vn 0.91213643 -0.40939697 0.02003119
vn -0.96415490 0.26402819 -0.02635226
vn 0.30394683 0.84602008 -0.43802552
vn 0.86408885 -0.48291881 0.14191508
vn -0.96174858 -0.19400427 0.19339602
vn 0.32443686 0.90305302 -0.28148884
vt 0.37000000 0.00000000
vt 0.30000000 1.00000000
vt 0.30000000 0.00000000
f 68/265/68 72/266/72 69/267/69
vt 0.30000000 0.00000000
vt 0.23000000 0.00000000
vt 0.37000000 0.00000000
f 69/268/69 67/269/67 68/270/68
vt 0.30000000 1.00000000
vt 0.23000000 0.00000000
vt 0.30000000 0.00000000
f 72/271/72 67/272/67 69/273/69
vt 0.23000000 0.58000000
vt 0.23000000 0.00000000
vt 0.30000000 1.00000000
f 70/274/70 67/275/67 72/276/72
vt 0.37000000 0.58000000
vt 0.30000000 1.00000000
vt 0.37000000 0.00000000
f 71/277/71 72/278/72 68/279/68
vt 0.37000000 0.58000000
vt 0.23000000 0.58000000
vt 0.30000000 1.00000000
f 71/280/71 70/281/70 72/282/72
vt 0.23000000 0.00000000
vt 0.23000000 0.58000000
vt 0.37000000 0.58000000
f 67/283/67 70/284/70 71/285/71
vt 0.37000000 0.00000000
vt 0.23000000 0.00000000
vt 0.37000000 0.58000000
f 68/286/68 67/287/67 71/288/71
g blade_12
usemtl foliage
s 1
v -0.00994401 0.01432618 0.00000000
v 0.00216935 -0.00961540 0.00000000
v -0.00618659 0.00082918 0.00000000
v -0.11407431 -0.06150990 0.43177160
v -0.10704856 -0.07539602 0.43177160
v -0.30135391 -0.19509757 0.74443380
vn -0.45768216 0.88899442 0.01469591
vn 0.55294667 -0.83302448 -0.01789411
vn -0.80558264 -0.40758870 -0.43000937
vn -0.40184732 0.91036124 0.09879856
vn 0.78881665 -0.59836580 0.14045166
vn -0.85687491 -0.43354029 -0.27894123
vt 0.83000000 0.58000000
vt 0.83000000 0.00000000
vt 0.90000000 1.00000000
f 76/289/76 73/290/73 78/291/78
vt 0.90000000 1.00000000
vt 0.97000000 0.00000000
vt 0.97000000 0.58000000
f 78/292/78 74/293/74 77/294/77
vt 0.97000000 0.58000000
vt 0.83000000 0.58000000
vt 0.90000000 1.00000000
f 77/295/77 76/296/76 78/297/78
vt 0.90000000 0.00000000
vt 0.83000000 0.00000000
vt 0.97000000 0.00000000
f 75/298/75 73/299/73 74/300/74
vt 0.90000000 0.00000000
vt 0.97000000 0.00000000
vt 0.90000000 1.00000000
f 75/301/75 74/302/74 78/303/78
vt 0.90000000 1.00000000
vt 0.83000000 0.00000000
vt 0.90000000 0.00000000
f 78/304/78 73/305/73 75/306/75
vt 0.83000000 0.00000000
vt 0.83000000 0.58000000
vt 0.97000000 0.58000000
f 73/307/73 76/308/76 77/309/77
vt 0.97000000 0.00000000
vt 0.83000000 0.00000000
vt 0.97000000 0.58000000
f 74/310/74 73/311/73 77/312/77
g blade_13
usemtl foliage
s 1
v -0.00916726 -0.01240336 0.00000000
v -0.00366147 0.01628163 0.00000000
v -0.00365956 0.00124544 0.00000000
v 0.08144675 -0.02890612 0.48634873
v 0.08464010 -0.01226883 0.48634873
v 0.24345691 -0.06098163 0.83853230
vn -0.39597641 -0.91816431 0.01330304
vn 0.24415280 0.96958092 -0.01738554
vn 0.93888328 -0.18020872 -0.29329679
vn -0.47116104 -0.87732793 0.09112063
vn -0.26451454 0.95488462 0.13500900
vn 0.96556947 -0.18533085 -0.18255976
vt 0.50000000 0.00000000
vt 0.50000000 1.00000000
vt 0.43000000 0.00000000
f 81/313/81 84/314/84 79/315/79
vt 0.43000000 0.00000000
vt 0.57000000 0.00000000
vt 0.50000000 0.00000000
f 79/316/79 80/317/80 81/318/81
vt 0.50000000 0.00000000
vt 0.57000000 0.00000000
vt 0.50000000 1.00000000
f 81/319/81 80/320/80 84/321/84
vt 0.43000000 0.00000000
vt 0.50000000 1.00000000
vt 0.43000000 0.58000000
f 79/322/79 84/323/84 82/324/82
vt 0.50000000 1.00000000
vt 0.57000000 0.00000000
vt 0.57000000 0.58000000
f 84/325/84 80/326/80 83/327/83
vt 0.57000000 0.58000000
vt 0.43000000 0.58000000
vt 0.50000000 1.00000000
f 83/328/83 82/329/82 84/330/84
vt 0.43000000 0.00000000
vt 0.43000000 0.58000000
vt 0.57000000 0.58000000
f 79/331/79 82/332/82 83/333/83
vt 0.57000000 0.58000000
vt 0.57000000 0.00000000
vt 0.43000000 0.00000000
f 83/334/83 80/335/80 79/336/79
g blade_14
usemtl foliage
s 1
v 0.00699892 0.00918098 0.00000000
v -0.01534490 -0.00881159 0.00000000
v -0.00590093 0.00299988 0.00000000
v -0.03823309 0.07145048 0.27935142
v -0.05119251 0.06101478 0.27935142
v -0.11764754 0.18505877 0.48164038
vn 0.93164582 0.36275756 0.02104785
vn -0.85189136 -0.52288554 -0.02952677
vn -0.57264680 0.71113322 -0.40787887
vn 0.95199566 0.26759148 0.14865757
vn -0.39261651 -0.89197894 0.22411125
vn -0.60584961 0.75236566 -0.25863520
vt 0.70000000 1.00000000
vt 0.63000000 0.00000000
vt 0.70000000 0.00000000
f 90/337/90 85/338/85 87/339/87
vt 0.70000000 0.00000000
vt 0.77000000 0.00000000
vt 0.70000000 1.00000000
f 87/340/87 86/341/86 90/342/90
vt 0.63000000 0.00000000
vt 0.77000000 0.00000000
vt 0.70000000 0.00000000
f 85/343/85 86/344/86 87/345/87
vt 0.63000000 0.58000000
vt 0.63000000 0.00000000
vt 0.70000000 1.00000000
f 88/346/88 85/347/85 90/348/90
vt 0.70000000 1.00000000
vt 0.77000000 0.00000000
vt 0.77000000 0.58000000
f 90/349/90 86/350/86 89/351/89
vt 0.77000000 0.58000000
vt 0.63000000 0.58000000
vt 0.70000000 1.00000000
f 89/352/89 88/353/88 90/354/90
vt 0.63000000 0.00000000
vt 0.63000000 0.58000000
vt 0.77000000 0.58000000
f 85/355/85 88/356/88 89/357/89
vt 0.77000000 0.58000000
vt 0.77000000 0.00000000
vt 0.63000000 0.00000000
f 89/358/89 86/359/86 85/360/85
g blade_15
usemtl foliage
s 1
v -0.02162568 0.00621040 0.00000000
v 0.01203151 0.00121477 0.00000000
v -0.00527684 -0.00052801 0.00000000
v -0.02372997 -0.07591237 0.38659850
v -0.00420880 -0.07880983 0.38659850
v -0.03051559 -0.22361239 0.66654914
vn -0.94976346 0.31245963 0.01784232
vn 0.99333785 -0.11238171 -0.02550028
vn -0.13887537 -0.93564936 -0.32445941
vn -0.89784804 0.41980961 0.13277344
vn 0.86471880 0.47115843 0.17398601
vn -0.14385719 -0.96921354 -0.19982550
vt 0.10000000 0.00000000
vt 0.17000000 0.00000000
vt 0.10000000 1.00000000
f 93/361/93 92/362/92 96/363/96
vt 0.10000000 1.00000000
vt 0.03000000 0.00000000
vt 0.10000000 0.00000000
f 96/364/96 91/365/91 93/366/93
vt 0.10000000 0.00000000
vt 0.03000000 0.00000000
vt 0.17000000 0.00000000
f 93/367/93 91/368/91 92/369/92
vt 0.03000000 0.58000000
vt 0.03000000 0.00000000
vt 0.10000000 1.00000000
f 94/370/94 91/371/91 96/372/96
vt 0.10000000 1.00000000
vt 0.17000000 0.00000000
vt 0.17000000 0.58000000
f 96/373/96 92/374/92 95/375/95
vt 0.17000000 0.58000000
vt 0.03000000 0.58000000
vt 0.10000000 1.00000000
f 95/376/95 94/377/94 96/378/96
vt 0.03000000 0.00000000
vt 0.03000000 0.58000000
vt 0.17000000 0.58000000
f 91/379/91 94/380/94 95/381/95
vt 0.17000000 0.00000000
vt 0.03000000 0.00000000
vt 0.17000000 0.58000000
f 92/382/92 91/383/91 95/384/95
g blade_16
usemtl foliage
s 1
v 0.00147991 -0.00953819 0.00000000
v -0.01351032 0.01083409 0.00000000
v -0.00405872 0.00253663 0.00000000
v 0.06095334 0.05519112 0.38113247
v 0.05225901 0.06700705 0.38113247
v 0.16891132 0.16951211 0.65712495
vn 0.57864990 -0.81543770 0.01502159
vn -0.69440345 0.71933314 -0.01907074
vn 0.75620824 0.55642900 -0.34429038
vn 0.50491945 -0.85678064 0.10480115
vn -0.92539910 0.35226678 0.13980204
vn 0.78633029 0.57859324 -0.21659761
vt 0.37000000 0.00000000
vt 0.30000000 1.00000000
vt 0.30000000 0.00000000
f 98/385/98 102/386/102 99/387/99
vt 0.30000000 0.00000000
vt 0.23000000 0.00000000
vt 0.37000000 0.00000000
f 99/388/99 97/389/97 98/390/98
vt 0.30000000 1.00000000
vt 0.23000000 0.00000000
vt 0.30000000 0.00000000
f 102/391/102 97/392/97 99/393/99
vt 0.23000000 0.58000000
vt 0.23000000 0.00000000
vt 0.30000000 1.00000000
f 100/394/100 97/395/97 102/396/102
vt 0.37000000 0.58000000
vt 0.30000000 1.00000000
vt 0.37000000 0.00000000
f 101/397/101 102/398/102 98/399/98
vt 0.37000000 0.58000000
vt 0.23000000 0.58000000
vt 0.30000000 1.00000000
f 101/400/101 100/401/100 102/402/102
vt 0.23000000 0.00000000
vt 0.23000000 0.58000000
vt 0.37000000 0.58000000
f 97/403/97 100/404/100 101/405/101
vt 0.37000000 0.00000000
vt 0.23000000 0.00000000
vt 0.37000000 0.58000000
f 98/406/98 97/407/97 101/408/101
g blade_17
usemtl foliage
s 1
v -0.00283041 0.01821492 0.00000000
v -0.00403617 -0.01518226 0.00000000
v -0.00664064 0.00166825 0.00000000
v -0.07896025 0.01479547 0.29658889
v -0.07965959 -0.00457489 0.29658889
v -0.21580539 0.01157551 0.51136016
vn 0.26238453 0.96467414 0.02362551
vn -0.04728755 -0.99834734 -0.03265702
vn -0.92277672 0.03331565 -0.38389216
vn 0.37061330 0.91379244 0.16622022
vn 0.55707339 -0.80034539 0.22162242
vn -0.96968171 0.03500910 -0.24185066
vt 0.90000000 1.00000000
vt 0.83000000 0.00000000
vt 0.90000000 0.00000000
f 108/409/108 103/410/103 105/411/105
vt 0.90000000 0.00000000
vt 0.97000000 0.00000000
vt 0.90000000 1.00000000
f 105/412/105 104/413/104 108/414/108
vt 0.83000000 0.00000000
vt 0.97000000 0.00000000
vt 0.90000000 0.00000000
f 103/415/103 104/416/104 105/417/105
vt 0.83000000 0.58000000
vt 0.83000000 0.00000000
vt 0.90000000 1.00000000
f 106/418/106 103/419/103 108/420/108
vt 0.90000000 1.00000000
vt 0.97000000 0.00000000
vt 0.97000000 0.58000000
f 108/421/108 104/422/104 107/423/107
vt 0.97000000 0.58000000
vt 0.83000000 0.58000000
vt 0.90000000 1.00000000
f 107/424/107 106/425/106 108/426/108
vt 0.83000000 0.00000000
vt 0.83000000 0.58000000
vt 0.97000000 0.58000000
f 103/427/103 106/428/106 107/429/107
vt 0.97000000 0.58000000
vt 0.97000000 0.00000000
vt 0.83000000 0.00000000
f 107/430/107 104/431/104 103/432/103
g blade_18
usemtl foliage
s 1
v -0.01685043 -0.00931133 0.00000000
v 0.00442478 0.01517645 0.00000000
v -0.00386110 0.00025201 0.00000000
v 0.03997506 -0.06384749 0.29084006
v 0.05231468 -0.04964458 0.29084006
v 0.14040107 -0.16418159 0.50144837
vn -0.86530481 -0.50074340 0.02244163
vn 0.75132309 0.65915665 -0.03203305
vn 0.69114187 -0.60047074 -0.40219126
vn -0.90191684 -0.40166356 0.15878411
vn 0.18510467 0.95382711 0.23653774
vn 0.73009984 -0.63431780 -0.25415579
vt 0.30000000 0.00000000
vt 0.30000000 1.00000000
vt 0.23000000 0.00000000
f 111/433/111 114/434/114 109/435/109
vt 0.23000000 0.00000000
vt 0.37000000 0.00000000
vt 0.30000000 0.00000000
f 109/436/109 110/437/110 111/438/111
vt 0.30000000 0.00000000
vt 0.37000000 0.00000000
vt 0.30000000 1.00000000
f 111/439/111 110/440/110 114/441/114
vt 0.23000000 0.00000000
vt 0.30000000 1.00000000
vt 0.23000000 0.58000000
f 109/442/109 114/443/114 112/444/112
vt 0.30000000 1.00000000
vt 0.37000000 0.00000000
vt 0.37000000 0.58000000
f 114/445/114 110/446/110 113/447/113
vt 0.37000000 0.58000000
vt 0.23000000 0.58000000
vt 0.30000000 1.00000000
f 113/448/113 112/449/112 114/450/114
vt 0.23000000 0.00000000
vt 0.23000000 0.58000000
vt 0.37000000 0.58000000
f 109/451/109 112/452/112 113/453/113
vt 0.37000000 0.58000000
vt 0.37000000 0.00000000
vt 0.23000000 0.00000000
f 113/454/113 110/455/110 109/456/109
g blade_19
usemtl foliage
s 1
v 0.00797529 0.00064682 0.00000000
v -0.01791752 -0.00072458 0.00000000
v -0.00510281 0.00322346 0.00000000
v -0.00252579 0.12578560 0.28621740
v -0.01754362 0.12499019 0.28621740
v -0.01910250 0.35000000 0.49347827
vn 0.99754815 -0.06680656 0.02084631
vn -0.99884150 -0.04032415 -0.02626065
vn -0.04312865 0.81429876 -0.57884148
vn 0.98230882 -0.12314761 0.14108173
vn -0.90467562 -0.36960762 0.21201941
vn -0.04856506 0.91694185 -0.39605438
vt 0.43000000 0.58000000
vt 0.43000000 0.00000000
vt 0.50000000 1.00000000
f 118/457/118 115/458/115 120/459/120
vt 0.50000000 1.00000000
vt 0.57000000 0.00000000
vt 0.57000000 0.58000000
f 120/460/120 116/461/116 119/462/119
vt 0.57000000 0.58000000
vt 0.43000000 0.58000000
vt 0.50000000 1.00000000
f 119/463/119 118/464/118 120/465/120
vt 0.43000000 0.00000000
vt 0.57000000 0.00000000
vt 0.50000000 0.00000000
f 115/466/115 116/467/116 117/468/117
vt 0.50000000 1.00000000
vt 0.43000000 0.00000000
vt 0.50000000 0.00000000
f 120/469/120 115/470/115 117/471/117
vt 0.50000000 0.00000000
vt 0.57000000 0.00000000
vt 0.50000000 1.00000000
f 117/472/117 116/473/116 120/474/120
vt 0.43000000 0.00000000
vt 0.43000000 0.58000000
vt 0.57000000 0.58000000
f 115/475/115 118/476/118 119/477/119
vt 0.57000000 0.58000000
vt 0.57000000 0.00000000
vt 0.43000000 0.00000000
f 119/478/119 116/479/116 115/480/115
g blade_20
usemtl foliage
s 1
v -0.01650122 0.01524806 0.00000000
v 0.00874472 -0.00888266 0.00000000
v -0.00619568 0.00000187 0.00000000
v -0.09314086 -0.10228959 0.36655690
v -0.07849822 -0.11628541 0.36655690
v -0.23265166 -0.31082495 0.63199465
vn -0.72440227 0.68903095 0.02185646
vn 0.80793801 -0.58863130 -0.02737464
vn -0.59006146 -0.61733157 -0.52031645
vn -0.66492368 0.73167578 0.15009016
vn 0.95061530 -0.23321258 0.20479855
vn -0.64812426 -0.67807779 -0.34662005
vt 0.10000000 0.00000000
vt 0.17000000 0.00000000
vt 0.10000000 1.00000000
f 123/481/123 122/482/122 126/483/126
vt 0.10000000 1.00000000
vt 0.03000000 0.00000000
vt 0.10000000 0.00000000
f 126/484/126 121/485/121 123/486/123
vt 0.10000000 0.00000000
vt 0.03000000 0.00000000
vt 0.17000000 0.00000000
f 123/487/123 121/488/121 122/489/122
vt 0.03000000 0.58000000
vt 0.03000000 0.00000000
vt 0.10000000 1.00000000
f 124/490/124 121/491/121 126/492/126
vt 0.10000000 1.00000000
vt 0.17000000 0.00000000
vt 0.17000000 0.58000000
f 126/493/126 122/494/122 125/495/125
vt 0.17000000 0.58000000
vt 0.03000000 0.58000000
vt 0.10000000 1.00000000
f 125/496/125 124/497/124 126/498/126
vt 0.03000000 0.00000000
vt 0.03000000 0.58000000
vt 0.17000000 0.58000000
f 121/499/121 124/500/124 125/501/125
vt 0.17000000 0.00000000
vt 0.03000000 0.00000000
vt 0.17000000 0.58000000
f 122/502/122 121/503/121 125/504/125
g blade_21
usemtl foliage
s 1
v -0.00462586 -0.01787293 0.00000000
v -0.00913228 0.02048973 0.00000000
v -0.00319486 0.00187618 0.00000000
v 0.06680149 0.00133687 0.39385371
v 0.06418777 0.02358721 0.39385371
v 0.19600109 0.03257462 0.67905812
vn -0.10546607 -0.99422572 0.01980204
vn -0.15225217 0.98793323 -0.02841131
vn 0.95073454 0.11168162 -0.28919033
vn -0.24594725 -0.95854564 0.14387565
vn -0.75552037 0.63094502 0.17634443
vn 0.97749306 0.11482491 -0.17698181
vt 0.37000000 0.00000000
vt 0.30000000 1.00000000
vt 0.30000000 0.00000000
f 128/505/128 132/506/132 129/507/129
vt 0.30000000 0.00000000
vt 0.23000000 0.00000000
vt 0.37000000 0.00000000
f 129/508/129 127/509/127 128/510/128
vt 0.30000000 1.00000000
vt 0.23000000 0.00000000
vt 0.30000000 0.00000000
f 132/511/132 127/512/127 129/513/129
vt 0.23000000 0.58000000
vt 0.23000000 0.00000000
vt 0.30000000 1.00000000
f 130/514/130 127/515/127 132/516/132
vt 0.37000000 0.58000000
vt 0.30000000 1.00000000
vt 0.37000000 0.00000000
f 131/517/131 132/518/132 128/519/128
vt 0.37000000 0.58000000
vt 0.23000000 0.58000000
vt 0.30000000 1.00000000
f 131/520/131 130/521/130 132/522/132
vt 0.23000000 0.00000000
vt 0.23000000 0.58000000
vt 0.37000000 0.58000000
f 127/523/127 130/524/130 131/525/131
vt 0.37000000 0.00000000
vt 0.23000000 0.00000000
vt 0.37000000 0.58000000
f 128/526/128 127/527/127 131/528/131
g blade_22
usemtl foliage
s 1
v 0.00398836 0.01343978 0.00000000
v -0.01159811 -0.01221901 0.00000000
v -0.00626905 0.00257419 0.00000000
v -0.09358446 0.08320248 0.29619664
v -0.10262460 0.06832038 0.29619664
v -0.26698045 0.21034518 0.51068386
vn 0.71644349 0.69727474 0.02273023
vn -0.62296940 -0.78170309 -0.02914469
vn -0.71539238 0.43456600 -0.54714361
vn 0.75231332 0.64102734 0.15201519
vn -0.23542337 -0.94220705 0.23837303
vn -0.79432118 0.48251140 -0.36910244
vt 0.83000000 0.58000000
vt 0.83000000 0.00000000
vt 0.90000000 1.00000000
f 136/529/136 133/530/133 138/531/138
vt 0.90000000 1.00000000
vt 0.97000000 0.00000000
vt 0.97000000 0.58000000
f 138/532/138 134/533/134 137/534/137
vt 0.97000000 0.58000000
vt 0.83000000 0.58000000
vt 0.90000000 1.00000000
f 137/535/137 136/536/136 138/537/138
vt 0.83000000 0.00000000
vt 0.97000000 0.00000000
vt 0.90000000 0.00000000
f 133/538/133 134/539/134 135/540/135
vt 0.90000000 1.00000000
vt 0.83000000 0.00000000
vt 0.90000000 0.00000000
f 138/541/138 133/542/133 135/543/135
vt 0.90000000 0.00000000
vt 0.97000000 0.00000000
vt 0.90000000 1.00000000
f 135/544/135 134/545/134 138/546/138
vt 0.83000000 0.00000000
vt 0.83000000 0.58000000
vt 0.97000000 0.58000000
f 133/547/133 136/548/136 137/549/137
vt 0.97000000 0.58000000
vt 0.97000000 0.00000000
vt 0.83000000 0.00000000
f 137/550/137 134/551/134 133/552/133
g blade_23
usemtl foliage
s 1
v -0.02062993 -0.00041145 0.00000000
v 0.00980290 0.00743038 0.00000000
v -0.00466041 -0.00032489 0.00000000
v 0.00534332 -0.09846650 0.39484316
v 0.02299436 -0.09391824 0.39484316
v 0.04935846 -0.27535725 0.68076408
vn -0.99907869 -0.03938516 0.01704622
vn 0.98099202 0.19267581 -0.02303683
vn 0.23032429 -0.89384985 -0.38468581
vn -0.99168413 0.04556903 0.12035797
vn 0.75306256 0.63331237 0.17835979
vn 0.24203893 -0.93931238 -0.24312429
vt 0.50000000 0.00000000
vt 0.50000000 1.00000000
vt 0.43000000 0.00000000
f 141/553/141 144/554/144 139/555/139
vt 0.43000000 0.00000000
vt 0.57000000 0.00000000
vt 0.50000000 0.00000000
f 139/556/139 140/557/140 141/558/141
vt 0.50000000 0.00000000
vt 0.57000000 0.00000000
vt 0.50000000 1.00000000
f 141/559/141 140/560/140 144/561/144
vt 0.43000000 0.00000000
vt 0.50000000 1.00000000
vt 0.43000000 0.58000000
f 139/562/139 144/563/144 142/564/142
vt 0.50000000 1.00000000
vt 0.57000000 0.00000000
vt 0.57000000 0.58000000
f 144/565/144 140/566/140 143/567/143
vt 0.57000000 0.58000000
vt 0.43000000 0.58000000
vt 0.50000000 1.00000000
f 143/568/143 142/569/142 144/570/144
vt 0.43000000 0.00000000
vt 0.43000000 0.58000000
vt 0.57000000 0.58000000
f 139/571/139 142/572/142 143/573/143
vt 0.57000000 0.58000000
vt 0.57000000 0.00000000
vt 0.43000000 0.00000000
f 143/574/143 140/575/140 139/576/139
g blade_24
usemtl foliage
s 1
v 0.00356124 -0.00558689 0.00000000
v -0.01479202 0.00645907 0.00000000
v -0.00445854 0.00274849 0.00000000
v 0.05911308 0.11568790 0.44732373
v 0.04846819 0.12267456 0.44732373
v 0.15997977 0.33143990 0.77124781
vn 0.85174996 -0.52381759 0.01171065
vn -0.89423705 0.44737047 -0.01413370
vn 0.49532572 0.75467989 -0.43024493
vn 0.82375882 -0.56150682 0.07830388
vn -0.97504006 0.19012757 0.11466645
vn 0.52683137 0.80268200 -0.27955379
vt 0.63000000 0.58000000
vt 0.63000000 0.00000000
vt 0.70000000 1.00000000
f 148/577/148 145/578/145 150/579/150
vt 0.77000000 0.58000000
vt 0.70000000 1.00000000
vt 0.77000000 0.00000000
f 149/580/149 150/581/150 146/582/146
vt 0.77000000 0.58000000
vt 0.63000000 0.58000000
vt 0.70000000 1.00000000
f 149/583/149 148/584/148 150/585/150
vt 0.70000000 0.00000000
vt 0.63000000 0.00000000
vt 0.77000000 0.00000000
f 147/586/147 145/587/145 146/588/146
vt 0.77000000 0.00000000
vt 0.70000000 1.00000000
vt 0.70000000 0.00000000
f 146/589/146 150/590/150 147/591/147
vt 0.70000000 1.00000000
vt 0.63000000 0.00000000
vt 0.70000000 0.00000000
f 150/592/150 145/593/145 147/594/147
vt 0.63000000 0.00000000
vt 0.63000000 0.58000000
vt 0.77000000 0.58000000
f 145/595/145 148/596/148 149/597/149
vt 0.77000000 0.00000000
vt 0.63000000 0.00000000
vt 0.77000000 0.58000000
f 146/598/146 145/599/145 149/600/149
g blade_25
usemtl foliage
s 1
v -0.00864379 0.02205007 0.00000000
v 0.00236603 -0.01747832 0.00000000
v -0.00693505 0.00089870 0.00000000
v -0.08816344 -0.01615331 0.33614325
v -0.08177775 -0.03907977 0.33614325
v -0.23234728 -0.08146996 0.57955733
vn -0.11464066 0.99308025 0.02547816
vn 0.34300333 -0.93867184 -0.03526881
vn -0.88824911 -0.24740352 -0.38704652
vn 0.01889410 0.98295596 0.18286768
vn 0.82134967 -0.52491303 0.22327347
vn -0.93439248 -0.26025581 -0.24326449
vt 0.10000000 0.00000000
vt 0.17000000 0.00000000
vt 0.10000000 1.00000000
f 153/601/153 152/602/152 156/603/156
vt 0.10000000 1.00000000
vt 0.03000000 0.00000000
vt 0.10000000 0.00000000
f 156/604/156 151/605/151 153/606/153
vt 0.10000000 0.00000000
vt 0.03000000 0.00000000
vt 0.17000000 0.00000000
f 153/607/153 151/608/151 152/609/152
vt 0.03000000 0.58000000
vt 0.03000000 0.00000000
vt 0.10000000 1.00000000
f 154/610/154 151/611/151 156/612/156
vt 0.10000000 1.00000000
vt 0.17000000 0.00000000
vt 0.17000000 0.58000000
f 156/613/156 152/614/152 155/615/155
vt 0.17000000 0.58000000
vt 0.03000000 0.58000000
vt 0.10000000 1.00000000
f 155/616/155 154/617/154 156/618/156
vt 0.03000000 0.00000000
vt 0.03000000 0.58000000
vt 0.17000000 0.58000000
f 151/619/151 154/620/154 155/621/155
vt 0.17000000 0.00000000
vt 0.03000000 0.00000000
vt 0.17000000 0.58000000
f 152/622/152 151/623/151 155/624/155
g blade_26
usemtl foliage
s 1
v -0.01170774 -0.01108614 0.00000000
v -0.00093175 0.01562842 0.00000000
v -0.00375418 0.00091343 0.00000000
v 0.08917021 -0.05766346 0.29677405
v 0.09542029 -0.04216902 0.29677405
v 0.26889359 -0.14337266 0.51167940
vn -0.57938438 -0.81476074 0.02187870
vn 0.46756056 0.88351787 -0.02798747
vn 0.79337564 -0.32002798 -0.51781965
vn -0.62752680 -0.76470152 0.14642988
vn 0.04599585 0.97296617 0.22632104
vn 0.87039160 -0.35109430 -0.34518293
vt 0.23000000 0.00000000
vt 0.30000000 1.00000000
vt 0.23000000 0.58000000
f 157/625/157 162/626/162 160/627/160
vt 0.30000000 1.00000000
vt 0.37000000 0.00000000
vt 0.37000000 0.58000000
f 162/628/162 158/629/158 161/630/161
vt 0.37000000 0.58000000
vt 0.23000000 0.58000000
vt 0.30000000 1.00000000
f 161/631/161 160/632/160 162/633/162
vt 0.23000000 0.00000000
vt 0.37000000 0.00000000
vt 0.30000000 0.00000000
f 157/634/157 158/635/158 159/636/159
vt 0.30000000 0.00000000
vt 0.30000000 1.00000000
vt 0.23000000 0.00000000
f 159/637/159 162/638/162 157/639/157
vt 0.30000000 0.00000000
vt 0.37000000 0.00000000
vt 0.30000000 1.00000000
f 159/640/159 158/641/158 162/642/162
vt 0.23000000 0.00000000
vt 0.23000000 0.58000000
vt 0.37000000 0.58000000
f 157/643/157 160/644/160 161/645/161
vt 0.37000000 0.58000000
vt 0.37000000 0.00000000
vt 0.23000000 0.00000000
f 161/646/161 158/647/158 157/648/157
g blade_27
usemtl foliage
s 1
v 0.01048381 0.00683538 0.00000000
v -0.01919160 -0.00738973 0.00000000
v -0.00572003 0.00346175 0.00000000
v -0.03279450 0.10523955 0.37937457
v -0.05000624 0.09698898 0.37937457
v -0.10794382 0.28323518 0.65409409
vn 0.93897184 0.34308214 -0.02503062
vn -0.87435329 -0.48491357 0.01910884
vn -0.39280600 0.81944370 -0.41739125
vn 0.97678579 -0.11228973 0.18242956
vn -0.82039724 -0.55550629 0.13550327
vn -0.41661605 0.86911452 -0.26659148
vt 0.90000000 1.00000000
vt 0.83000000 0.00000000
vt 0.90000000 0.00000000
f 168/649/168 163/650/163 165/651/165
vt 0.90000000 0.00000000
vt 0.97000000 0.00000000
vt 0.90000000 1.00000000
f 165/652/165 164/653/164 168/654/168
vt 0.83000000 0.00000000
vt 0.97000000 0.00000000
vt 0.90000000 0.00000000
f 163/655/163 164/656/164 165/657/165
vt 0.90000000 1.00000000
vt 0.97000000 0.00000000
vt 0.97000000 0.58000000
f 168/658/168 164/659/164 167/660/167
vt 0.83000000 0.58000000
vt 0.83000000 0.00000000
vt 0.90000000 1.00000000
f 166/661/166 163/662/163 168/663/168
vt 0.90000000 1.00000000
vt 0.97000000 0.58000000
vt 0.83000000 0.58000000
f 168/664/168 167/665/167 166/666/166
vt 0.83000000 0.58000000
vt 0.97000000 0.58000000
vt 0.97000000 0.00000000
f 166/667/166 167/668/167 164/669/164
vt 0.83000000 0.58000000
vt 0.97000000 0.00000000
vt 0.83000000 0.00000000
f 166/670/166 164/671/164 163/672/163
g blade_28
usemtl foliage
s 1
v -0.02158178 0.01085956 0.00000000
v 0.01287097 -0.00333415 0.00000000
v -0.00571852 -0.00057813 0.00000000
v -0.04222645 -0.08090419 0.32240166
v -0.02224385 -0.08913654 0.32240166
v -0.08248070 -0.24502735 0.55586492
vn -0.87535054 0.48289324 0.02399066
vn 0.95353448 -0.29942984 -0.03337314
vn -0.34508791 -0.83764041 -0.42340628
vn -0.80043566 0.57297634 0.17607062
vn 0.93881359 0.26206774 0.22349394
vn -0.36693669 -0.89067448 -0.26843330
vt 0.30000000 0.00000000
vt 0.37000000 0.00000000
vt 0.30000000 1.00000000
f 171/673/171 170/674/170 174/675/174
vt 0.30000000 1.00000000
vt 0.23000000 0.00000000
vt 0.30000000 0.00000000
f 174/676/174 169/677/169 171/678/171
vt 0.30000000 0.00000000
vt 0.23000000 0.00000000
vt 0.37000000 0.00000000
f 171/679/171 169/680/169 170/681/170
vt 0.23000000 0.58000000
vt 0.23000000 0.00000000
vt 0.30000000 1.00000000
f 172/682/172 169/683/169 174/684/174
vt 0.30000000 1.00000000
vt 0.37000000 0.00000000
vt 0.37000000 0.58000000
f 174/685/174 170/686/170 173/687/173
vt 0.37000000 0.58000000
vt 0.23000000 0.58000000
vt 0.30000000 1.00000000
f 173/688/173 172/689/172 174/690/174
vt 0.23000000 0.00000000
vt 0.23000000 0.58000000
vt 0.37000000 0.58000000
f 169/691/169 172/692/172 173/693/173
vt 0.37000000 0.00000000
vt 0.23000000 0.00000000
vt 0.37000000 0.58000000
f 170/694/170 169/695/169 173/696/173
g blade_29
usemtl foliage
s 1
v 0.00175530 -0.01821084 0.00000000
v -0.01542499 0.01923081 0.00000000
v -0.00323908 0.00267459 0.00000000
v 0.05559639 0.02423557 0.47952941
v 0.04563182 0.04595172 0.47952941
v 0.15454344 0.09765802 0.82677484
vn 0.24149969 -0.97025952 0.01656385
vn -0.51559052 0.85647757 -0.02475035
vn 0.88644886 0.40675150 -0.22082035
vn 0.06727853 -0.98971173 0.12627067
vn -0.95298690 0.26959385 0.13832976
vn 0.90089743 0.41338130 -0.13228647
vt 0.57000000 0.00000000
vt 0.50000000 1.00000000
vt 0.50000000 0.00000000
f 176/697/176 180/698/180 177/699/177
vt 0.50000000 0.00000000
vt 0.43000000 0.00000000
vt 0.57000000 0.00000000
f 177/700/177 175/701/175 176/702/176
vt 0.50000000 1.00000000
vt 0.43000000 0.00000000
vt 0.50000000 0.00000000
f 180/703/180 175/704/175 177/705/177
vt 0.43000000 0.58000000
vt 0.43000000 0.00000000
vt 0.50000000 1.00000000
f 178/706/178 175/707/175 180/708/180
vt 0.57000000 0.58000000
vt 0.50000000 1.00000000
vt 0.57000000 0.00000000
f 179/709/179 180/710/180 176/711/176
vt 0.57000000 0.58000000
vt 0.43000000 0.58000000
vt 0.50000000 1.00000000
f 179/712/179 178/713/178 180/714/180
vt 0.43000000 0.00000000
vt 0.43000000 0.58000000
vt 0.57000000 0.58000000
f 175/715/175 178/716/178 179/717/179
vt 0.57000000 0.00000000
vt 0.43000000 0.00000000
vt 0.57000000 0.58000000
f 176/718/176 175/719/175 179/720/179
g blade_30
usemtl foliage
s 1
v 0.00104730 0.01970496 0.00000000
v -0.00753838 -0.01760212 0.00000000
v -0.00682838 0.00213316 0.00000000
v -0.05814665 0.02919814 0.40594340
v -0.06312635 0.00756004 0.40594340
v -0.16445629 0.04972472 0.69990242
vn 0.55457670 0.83195238 0.01731803
vn -0.28892920 -0.95696181 -0.02727673
vn -0.94760365 0.21807712 -0.23343028
vn 0.67494642 0.72660248 0.12843736
vn 0.53633748 -0.82824179 0.16235034
vn -0.96491082 0.22206011 -0.14013002
vt 0.10000000 1.00000000
vt 0.03000000 0.00000000
vt 0.10000000 0.00000000
f 186/721/186 181/722/181 183/723/183
vt 0.10000000 0.00000000
vt 0.17000000 0.00000000
vt 0.10000000 1.00000000
f 183/724/183 182/725/182 186/726/186
vt 0.03000000 0.00000000
vt 0.17000000 0.00000000
vt 0.10000000 0.00000000
f 181/727/181 182/728/182 183/729/183
vt 0.03000000 0.58000000
vt 0.03000000 0.00000000
vt 0.10000000 1.00000000
f 184/730/184 181/731/181 186/732/186
vt 0.10000000 1.00000000
vt 0.17000000 0.00000000
vt 0.17000000 0.58000000
f 186/733/186 182/734/182 185/735/185
vt 0.17000000 0.58000000
vt 0.03000000 0.58000000
vt 0.10000000 1.00000000
f 185/736/185 184/737/184 186/738/186
vt 0.03000000 0.00000000
vt 0.03000000 0.58000000
vt 0.17000000 0.58000000
f 181/739/181 184/740/184 185/741/185
vt 0.17000000 0.58000000
vt 0.17000000 0.00000000
vt 0.03000000 0.00000000
f 185/742/185 182/743/182 181/744/181
g blade_31
usemtl foliage
s 1
v -0.02192555 -0.00803693 0.00000000
v 0.00962041 0.01519611 0.00000000
v -0.00392135 -0.00039501 0.00000000
v 0.04983077 -0.11918084 0.48349351
v 0.06812743 -0.10570568 0.48349351
v 0.17588435 -0.32069339 0.83360949
vn -0.87175946 -0.48937907 -0.02331443
vn 0.78789291 0.61554658 0.01808811
vn 0.54224760 -0.73626722 -0.40481862
vn -0.98330839 -0.06457838 0.17010066
vn 0.72622156 0.67556013 0.12736071
vn 0.57291420 -0.77790652 -0.25812934
vt 0.30000000 0.00000000
vt 0.30000000 1.00000000
vt 0.23000000 0.00000000
f 189/745/189 192/746/192 187/747/187
vt 0.23000000 0.00000000
vt 0.37000000 0.00000000
vt 0.30000000 0.00000000
f 187/748/187 188/749/188 189/750/189
vt 0.30000000 0.00000000
vt 0.37000000 0.00000000
vt 0.30000000 1.00000000
f 189/751/189 188/752/188 192/753/192
vt 0.30000000 1.00000000
vt 0.37000000 0.00000000
vt 0.37000000 0.58000000
f 192/754/192 188/755/188 191/756/191
vt 0.23000000 0.00000000
vt 0.30000000 1.00000000
vt 0.23000000 0.58000000
f 187/757/187 192/758/192 190/759/190
vt 0.30000000 1.00000000
vt 0.37000000 0.58000000
vt 0.23000000 0.58000000
f 192/760/192 191/761/191 190/762/190
vt 0.23000000 0.58000000
vt 0.37000000 0.58000000
vt 0.37000000 0.00000000
f 190/763/190 191/764/191 188/765/188
vt 0.23000000 0.58000000
vt 0.37000000 0.00000000
vt 0.23000000 0.00000000
f 190/766/190 188/767/188 187/768/187
g blade_32
usemtl foliage
s 1
v 0.00677650 -0.00229507 0.00000000
v -0.01730569 0.00244544 0.00000000
v -0.00480933 0.00310939 0.00000000
v 0.01256175 0.07096306 0.34048296
v -0.00140592 0.07371256 0.34048296
v 0.02508113 0.20232180 0.58703958
vn 0.94966061 -0.31290064 0.01542480
vn -0.98871451 0.14834987 -0.02087906
vn 0.18241025 0.92665809 -0.32868113
vn 0.90943768 -0.40066907 0.11129868
vn -0.92272723 -0.35412954 0.15220620
vn 0.18906766 0.96047827 -0.20429123
vt 0.97000000 0.00000000
vt 0.90000000 1.00000000
vt 0.90000000 0.00000000
f 194/769/194 198/770/198 195/771/195
vt 0.90000000 0.00000000
vt 0.83000000 0.00000000
vt 0.97000000 0.00000000
f 195/772/195 193/773/193 194/774/194
vt 0.90000000 1.00000000
vt 0.83000000 0.00000000
vt 0.90000000 0.00000000
f 198/775/198 193/776/193 195/777/195
vt 0.83000000 0.58000000
vt 0.83000000 0.00000000
vt 0.90000000 1.00000000
f 196/778/196 193/779/193 198/780/198
vt 0.97000000 0.58000000
vt 0.90000000 1.00000000
vt 0.97000000 0.00000000
f 197/781/197 198/782/198 194/783/194
vt 0.97000000 0.58000000
vt 0.83000000 0.58000000
vt 0.90000000 1.00000000
f 197/784/197 196/785/196 198/786/198
vt 0.83000000 0.00000000
vt 0.83000000 0.58000000
vt 0.97000000 0.58000000
f 193/787/193 196/788/196 197/789/197
vt 0.97000000 0.00000000
vt 0.83000000 0.00000000
vt 0.97000000 0.58000000
f 194/790/194 193/791/193 197/792/197
g blade_33
usemtl foliage
s 1
v -0.01248237 0.01552016 0.00000000
v 0.00487361 -0.01014884 0.00000000
v -0.00626954 0.00049891 0.00000000
v -0.07179748 -0.04571958 0.32039395
v -0.06173101 -0.06060760 0.32039395
v -0.17992546 -0.15354452 0.55240337
vn -0.51197965 0.85873870 0.02108770
vn 0.66334333 -0.74779881 -0.02779511
vn -0.76308591 -0.51595709 -0.38921482
vn -0.41176982 0.89881290 0.15026973
vn 0.93321048 -0.30534995 0.18941910
vn -0.80291806 -0.54288942 -0.24615780
vt 0.50000000 0.00000000
vt 0.57000000 0.00000000
vt 0.50000000 1.00000000
f 201/793/201 200/794/200 204/795/204
vt 0.50000000 1.00000000
vt 0.43000000 0.00000000
vt 0.50000000 0.00000000
f 204/796/204 199/797/199 201/798/201
vt 0.50000000 0.00000000
vt 0.43000000 0.00000000
vt 0.57000000 0.00000000
f 201/799/201 199/800/199 200/801/200
vt 0.43000000 0.58000000
vt 0.43000000 0.00000000
vt 0.50000000 1.00000000
f 202/802/202 199/803/199 204/804/204
vt 0.50000000 1.00000000
vt 0.57000000 0.00000000
vt 0.57000000 0.58000000
f 204/805/204 200/806/200 203/807/203
vt 0.57000000 0.58000000
vt 0.43000000 0.58000000
vt 0.50000000 1.00000000
f 203/808/203 202/809/202 204/810/204
vt 0.43000000 0.00000000
vt 0.43000000 0.58000000
vt 0.57000000 0.58000000
f 199/811/199 202/812/202 203/813/203
vt 0.57000000 0.00000000
vt 0.43000000 0.00000000
vt 0.57000000 0.58000000
f 200/814/200 199/815/199 203/816/203
g blade_34
usemtl foliage
s 1
v -0.00850138 -0.01879670 0.00000000
v -0.00552474 0.02235632 0.00000000
v -0.00306087 0.00140477 0.00000000
v 0.11358557 -0.02168056 0.39465803
v 0.11531202 0.00218819 0.39465803
v 0.33235707 -0.03042436 0.68044489
vn -0.26316578 -0.96447440 0.02308456
vn 0.09442618 0.99507074 -0.03029727
vn 0.89178883 -0.06450406 -0.44783023
vn -0.34695677 -0.92447576 0.15800495
vn -0.41778995 0.88041325 0.22433026
vn 0.95461691 -0.06904848 -0.28972205
vt 0.70000000 0.00000000
vt 0.70000000 1.00000000
vt 0.63000000 0.00000000
f 207/817/207 210/818/210 205/819/205
vt 0.63000000 0.00000000
vt 0.77000000 0.00000000
vt 0.70000000 0.00000000
f 205/820/205 206/821/206 207/822/207
vt 0.70000000 0.00000000
vt 0.77000000 0.00000000
vt 0.70000000 1.00000000
f 207/823/207 206/824/206 210/825/210
vt 0.63000000 0.00000000
vt 0.70000000 1.00000000
vt 0.63000000 0.58000000
f 205/826/205 210/827/210 208/828/208
vt 0.70000000 1.00000000
vt 0.77000000 0.00000000
vt 0.77000000 0.58000000
f 210/829/210 206/830/206 209/831/209
vt 0.77000000 0.58000000
vt 0.63000000 0.58000000
vt 0.70000000 1.00000000
f 209/832/209 208/833/208 210/834/210
vt 0.63000000 0.00000000
vt 0.63000000 0.58000000
vt 0.77000000 0.58000000
f 205/835/205 208/836/208 209/837/209
vt 0.77000000 0.58000000
vt 0.77000000 0.00000000
vt 0.63000000 0.00000000
f 209/838/209 206/839/206 205/840/205
g blade_35
usemtl foliage
s 1
v 0.01001272 0.01434507 0.00000000
v -0.01730662 -0.01460256 0.00000000
v -0.00642698 0.00331332 0.00000000
v -0.04996879 0.07542843 0.30664803
v -0.06581401 0.05863880 0.30664803
v -0.15571599 0.18815440 0.52870350
vn 0.89456795 0.44622184 0.02518448
vn -0.77741229 -0.62788594 -0.03727440
vn -0.66231152 0.62505682 -0.41309494
vn 0.92562852 0.33241188 0.18087064
vn -0.16159186 -0.95141020 0.26211962
vn -0.70213573 0.66264094 -0.26060008
vt 0.10000000 1.00000000
vt 0.03000000 0.00000000
vt 0.10000000 0.00000000
f 216/841/216 211/842/211 213/843/213
vt 0.10000000 0.00000000
vt 0.17000000 0.00000000
vt 0.10000000 1.00000000
f 213/844/213 212/845/212 216/846/216
vt 0.03000000 0.00000000
vt 0.17000000 0.00000000
vt 0.10000000 0.00000000
f 211/847/211 212/848/212 213/849/213
vt 0.03000000 0.58000000
vt 0.03000000 0.00000000
vt 0.10000000 1.00000000
f 214/850/214 211/851/211 216/852/216
vt 0.10000000 1.00000000
vt 0.17000000 0.00000000
vt 0.17000000 0.58000000
f 216/853/216 212/854/212 215/855/215
vt 0.17000000 0.58000000
vt 0.03000000 0.58000000
vt 0.10000000 1.00000000
f 215/856/215 214/857/214 216/858/216
vt 0.03000000 0.00000000
vt 0.03000000 0.58000000
vt 0.17000000 0.58000000
f 211/859/211 214/860/214 215/861/215
vt 0.17000000 0.58000000
vt 0.17000000 0.00000000
vt 0.03000000 0.00000000
f 215/862/215 212/863/212 211/864/211
g blade_36
usemtl foliage
s 1
v -0.02086801 0.00349742 0.00000000
v 0.01077711 0.00367424 0.00000000
v -0.00502847 -0.00040126 0.00000000
v -0.01390002 -0.07219119 0.28280991
v 0.00445415 -0.07208863 0.28280991
v -0.00414107 -0.20875700 0.48760330
vn -0.97985201 0.19845395 0.02249599
vn 0.99946484 0.00425680 -0.03243306
vn 0.00512287 -0.91681966 -0.39926867
vn -0.93678555 0.30792571 0.16617639
vn 0.78826785 0.57363339 0.22266238
vn 0.00540929 -0.96808002 -0.25058295
vt 0.23000000 0.00000000
vt 0.37000000 0.00000000
vt 0.30000000 0.00000000
f 217/865/217 218/866/218 219/867/219
vt 0.30000000 0.00000000
vt 0.30000000 1.00000000
vt 0.23000000 0.00000000
f 219/868/219 222/869/222 217/870/217
vt 0.37000000 0.00000000
vt 0.30000000 1.00000000
vt 0.30000000 0.00000000
f 218/871/218 222/872/222 219/873/219
vt 0.23000000 0.00000000
vt 0.30000000 1.00000000
vt 0.23000000 0.58000000
f 217/874/217 222/875/222 220/876/220
vt 0.37000000 0.58000000
vt 0.30000000 1.00000000
vt 0.37000000 0.00000000
f 221/877/221 222/878/222 218/879/218
vt 0.37000000 0.58000000
vt 0.23000000 0.58000000
vt 0.30000000 1.00000000
f 221/880/221 220/881/220 222/882/222
vt 0.23000000 0.00000000
vt 0.23000000 0.58000000
vt 0.37000000 0.58000000
f 217/883/217 220/884/220 221/885/221
vt 0.37000000 0.58000000
vt 0.37000000 0.00000000
vt 0.23000000 0.00000000
f 221/886/221 218/887/218 217/888/217
g blade_37
usemtl foliage
s 1
v 0.00719109 -0.01423306 0.00000000
v -0.01997591 0.01399476 0.00000000
v -0.00368151 0.00330373 0.00000000
v 0.05721264 0.06205717 0.36035294
v 0.04145578 0.07842930 0.36035294
v 0.14975921 0.19704336 0.62129818
vn 0.63025363 -0.77605860 0.02265877
vn -0.78353842 0.62055812 -0.03122767
vn 0.66871815 0.64358734 -0.37230549
vn 0.51775816 -0.83915842 0.16655220
vn -0.97719695 0.07217608 0.19969161
vn 0.70074353 0.67440919 -0.23266018
vt 0.97000000 0.00000000
vt 0.90000000 1.00000000
vt 0.90000000 0.00000000
f 224/889/224 228/890/228 225/891/225
vt 0.90000000 0.00000000
vt 0.83000000 0.00000000
vt 0.97000000 0.00000000
f 225/892/225 223/893/223 224/894/224
vt 0.90000000 1.00000000
vt 0.83000000 0.00000000
vt 0.90000000 0.00000000
f 228/895/228 223/896/223 225/897/225
vt 0.83000000 0.58000000
vt 0.83000000 0.00000000
vt 0.90000000 1.00000000
f 226/898/226 223/899/223 228/900/228
vt 0.97000000 0.58000000
vt 0.90000000 1.00000000
vt 0.97000000 0.00000000
f 227/901/227 228/902/228 224/903/224
vt 0.97000000 0.58000000
vt 0.83000000 0.58000000
vt 0.90000000 1.00000000
f 227/904/227 226/905/226 228/906/228
vt 0.83000000 0.00000000
vt 0.83000000 0.58000000
vt 0.97000000 0.58000000
f 223/907/223 226/908/226 227/909/227
vt 0.97000000 0.00000000
vt 0.83000000 0.00000000
vt 0.97000000 0.58000000
f 224/910/224 223/911/223 227/912/227
g blade_38
usemtl foliage
s 1
v -0.00485852 0.01351302 0.00000000
v -0.00294886 -0.01008783 0.00000000
v -0.00617023 0.00147198 0.00000000
v -0.12864419 -0.00462624 0.32938673
v -0.12753658 -0.01831473 0.32938673
v -0.35000000 -0.03502737 0.56790816
vn -0.00537781 0.99983753 0.01720461
vn 0.10553928 -0.99419683 -0.02083562
vn -0.84991764 -0.06877097 -0.52240842
vn 0.04704944 0.99243257 0.11341935
vn 0.40538283 -0.89827831 0.16959019
vn -0.93338772 -0.07552494 -0.35083235
vt 0.23000000 0.58000000
vt 0.23000000 0.00000000
vt 0.30000000 1.00000000
f 232/913/232 229/914/229 234/915/234
vt 0.30000000 1.00000000
vt 0.37000000 0.00000000
vt 0.37000000 0.58000000
f 234/916/234 230/917/230 233/918/233
vt 0.37000000 0.58000000
vt 0.23000000 0.58000000
vt 0.30000000 1.00000000
f 233/919/233 232/920/232 234/921/234
vt 0.30000000 0.00000000
vt 0.23000000 0.00000000
vt 0.37000000 0.00000000
f 231/922/231 229/923/229 230/924/230
vt 0.30000000 0.00000000
vt 0.37000000 0.00000000
vt 0.30000000 1.00000000
f 231/925/231 230/926/230 234/927/234
vt 0.30000000 1.00000000
vt 0.23000000 0.00000000
vt 0.30000000 0.00000000
f 234/928/234 229/929/229 231/930/231
vt 0.23000000 0.00000000
vt 0.23000000 0.58000000
vt 0.37000000 0.58000000
f 229/931/229 232/932/232 233/933/233
vt 0.37000000 0.00000000
vt 0.23000000 0.00000000
vt 0.37000000 0.58000000
f 230/934/230 229/935/229 233/936/233
g blade_39
usemtl foliage
s 1
v -0.01710815 -0.01299062 0.00000000
v 0.00397811 0.01883193 0.00000000
v -0.00350890 0.00026392 0.00000000
v 0.09751926 -0.10210599 0.33225732
v 0.10974929 -0.08364891 0.33225732
v 0.30107220 -0.26451356 0.57285745
vn -0.74924844 -0.66179725 0.02551830
vn 0.65571424 0.75428682 -0.03301859
vn 0.68114054 -0.45133745 -0.57649117
vn -0.78184286 -0.59956512 0.17100703
vn 0.25479460 0.92951791 0.26660114
vn 0.76633584 -0.50778957 -0.39354686
vt 0.43000000 0.00000000
vt 0.50000000 1.00000000
vt 0.43000000 0.58000000
f 235/937/235 240/938/240 238/939/238
vt 0.50000000 1.00000000
vt 0.57000000 0.00000000
vt 0.57000000 0.58000000
f 240/940/240 236/941/236 239/942/239
vt 0.57000000 0.58000000
vt 0.43000000 0.58000000
vt 0.50000000 1.00000000
f 239/943/239 238/944/238 240/945/240
vt 0.43000000 0.00000000
vt 0.57000000 0.00000000
vt 0.50000000 0.00000000
f 235/946/235 236/947/236 237/948/237
vt 0.50000000 0.00000000
vt 0.50000000 1.00000000
vt 0.43000000 0.00000000
f 237/949/237 240/950/240 235/951/235
vt 0.50000000 0.00000000
vt 0.57000000 0.00000000
vt 0.50000000 1.00000000
f 237/952/237 236/953/236 240/954/240
vt 0.43000000 0.00000000
vt 0.43000000 0.58000000
vt 0.57000000 0.58000000
f 235/955/235 238/956/238 239/957/239
vt 0.57000000 0.58000000
vt 0.57000000 0.00000000
vt 0.43000000 0.00000000
f 239/958/239 236/959/236 235/960/235
